<?xml version="1.0" encoding="utf-8"?>
<!-- Generator: Adobe Illustrator 24.0.3, SVG Export Plug-In . SVG Version: 6.00 Build 0)  -->
<svg version="1.1" id="Layer_1" xmlns="http://www.w3.org/2000/svg" xmlns:xlink="http://www.w3.org/1999/xlink" x="0px" y="0px"
	 viewBox="0 0 80 80" style="enable-background:new 0 0 80 80;" xml:space="preserve">
<style type="text/css">
	.st0{clip-path:url(#SVGID_2_);fill:#B2E5F6;}
	.st1{fill-rule:evenodd;clip-rule:evenodd;fill:#232F3E;}
	.st2{fill:#232F3E;}
	.st3{display:none;}
	.st4{display:inline;}
</style>
<g>
	<g>
		<g>
			<defs>
				<path id="SVGID_1_" d="M66.62,31.36c-9.45,0-18.9,0-28.34,0l2.99,13.57H64.7c0,11.69,0,23.38,0,35.07c-19.48,0-38.95,0-58.43,0
					c0-26.67,0-53.33,0-80c20.04,0,40.08,0,60.12,0C66.47,10.45,66.54,20.91,66.62,31.36z"/>
			</defs>
			<clipPath id="SVGID_2_">
				<use xlink:href="#SVGID_1_"  style="overflow:visible;"/>
			</clipPath>
			<path class="st0" d="M53.5,10c0-2.76-2.24-5-5-5h-0.95v0.01l0,0c0,1.66-1.34,3-3,3h-19c-1.66,0-3-1.34-3-3l0,0V5H19.5
				c-2.76,0-5,2.24-5,5v64c0,2.76,2.24,5,5,5h29c2.76,0,5-2.24,5-5V10z"/>
		</g>
	</g>
	<g>
		<path class="st1" d="M40,48.09c-0.18,0-0.36-0.03-0.53-0.09l-0.15-0.07l-0.17-0.1l-0.18-0.14l-0.15-0.14l-0.17-0.26l-0.08-0.14
			c-0.05-0.12-0.08-0.21-0.1-0.3L34,26.62h-5.14c-0.87,0-1.58-0.71-1.58-1.58s0.71-1.58,1.58-1.58h6.41c0.09,0,0.19,0.01,0.28,0.03
			c0.12,0.02,0.2,0.05,0.29,0.08l0.11,0.05l-0.04,0.21l0.1-0.17l0.09,0.06c0.13,0.09,0.17,0.12,0.21,0.16
			c0.12,0.11,0.16,0.16,0.19,0.21c0.1,0.13,0.13,0.19,0.16,0.25c0.08,0.15,0.11,0.25,0.14,0.36l0.78,3.51h30.86
			c0.46,0,0.89,0.2,1.19,0.54s0.44,0.8,0.37,1.26l-2.37,16.73c-0.11,0.78-0.78,1.36-1.56,1.36H40V48.09z M64.7,44.93l1.92-13.57
			H38.27l2.99,13.57H64.7z"/>
		<g>
			<path class="st2" d="M63.7,60.3c1.19,0,2.31-0.46,3.15-1.3s1.3-1.96,1.3-3.15s-0.46-2.31-1.3-3.15c-0.84-0.84-1.96-1.3-3.15-1.3
				s-2.31,0.46-3.15,1.3s-1.3,1.96-1.3,3.15s0.46,2.31,1.3,3.15C61.39,59.84,62.51,60.3,63.7,60.3z M61.26,53.41
				c0.65-0.65,1.52-1.01,2.44-1.01s1.79,0.36,2.44,1.01c0.65,0.65,1.01,1.52,1.01,2.44s-0.36,1.79-1.01,2.44
				c-0.65,0.65-1.52,1.01-2.44,1.01c-0.92,0-1.79-0.36-2.44-1.01c-0.65-0.65-1.01-1.52-1.01-2.44S60.61,54.06,61.26,53.41z"/>
			<path class="st2" d="M63.7,59.3c0.92,0,1.79-0.36,2.44-1.01c0.65-0.65,1.01-1.52,1.01-2.44s-0.36-1.79-1.01-2.44
				c-0.65-0.65-1.52-1.01-2.44-1.01s-1.79,0.36-2.44,1.01c-0.65,0.65-1.01,1.52-1.01,2.44s0.36,1.79,1.01,2.44S62.78,59.3,63.7,59.3
				z M62.79,54.93c0.25-0.24,0.57-0.37,0.91-0.37s0.67,0.13,0.92,0.39c0.24,0.24,0.37,0.57,0.37,0.9c0,0.34-0.13,0.67-0.38,0.91
				c-0.24,0.24-0.57,0.38-0.91,0.38s-0.67-0.13-0.91-0.38c-0.24-0.24-0.38-0.57-0.38-0.91C62.41,55.51,62.54,55.19,62.79,54.93z"/>
		</g>
		<g>
			<path class="st2" d="M41.38,60.24c1.19,0,2.31-0.46,3.15-1.3s1.3-1.96,1.3-3.15s-0.46-2.31-1.3-3.15s-1.96-1.3-3.15-1.3
				s-2.31,0.46-3.15,1.3s-1.3,1.96-1.3,3.15s0.46,2.31,1.3,3.15C39.07,59.77,40.19,60.24,41.38,60.24z M38.94,53.35
				c0.65-0.65,1.52-1.01,2.44-1.01s1.79,0.36,2.44,1.01c0.65,0.65,1.01,1.52,1.01,2.44s-0.36,1.79-1.01,2.44
				c-0.65,0.65-1.52,1.01-2.44,1.01s-1.79-0.36-2.44-1.01c-0.65-0.65-1.01-1.52-1.01-2.44S38.29,54,38.94,53.35z"/>
			<path class="st2" d="M41.38,59.24c0.92,0,1.79-0.36,2.44-1.01c0.65-0.65,1.01-1.52,1.01-2.44s-0.36-1.79-1.01-2.44
				c-0.65-0.65-1.52-1.01-2.44-1.01s-1.79,0.36-2.44,1.01c-0.65,0.65-1.01,1.52-1.01,2.44s0.36,1.79,1.01,2.44
				S40.46,59.24,41.38,59.24z M40.47,54.87c0.25-0.24,0.57-0.37,0.91-0.37s0.67,0.13,0.92,0.39c0.24,0.24,0.37,0.57,0.37,0.9
				c0,0.34-0.13,0.67-0.38,0.91c-0.24,0.24-0.57,0.38-0.91,0.38s-0.67-0.13-0.91-0.38c-0.24-0.24-0.38-0.57-0.38-0.91
				C40.09,55.45,40.22,55.13,40.47,54.87z"/>
		</g>
	</g>
	<g>
		<path class="st2" d="M42.27,3.02L42.27,3.02l-19,0.01V3.02H42.27 M46.23,0.02h-29c-4.42,0-8,3.58-8,8v64c0,4.42,3.58,8,8,8h29
			c4.42,0,8-3.58,8-8V52.43c0-0.83-0.67-1.5-1.5-1.5s-1.5,0.67-1.5,1.5v19.59c0,2.76-2.24,5-5,5h-29c-2.76,0-5-2.24-5-5v-64
			c0-2.76,2.24-5,5-5h3.05v0.01l0,0c0,1.66,1.34,3,3,3h19c1.66,0,3-1.34,3-3V3.02h0.95c2.76,0,5,2.24,5,5v15.84
			c0,0.83,0.67,1.5,1.5,1.5s1.5-0.67,1.5-1.5V8.02C54.23,3.6,50.65,0.02,46.23,0.02L46.23,0.02z"/>
	</g>
</g>
<g id="Pound" class="st3">
	<g class="st4">
		<g>
			<g>
				<defs>
					<path id="SVGID_3_" d="M241.72-554.63h0.68c4.01-0.01,18.46-0.15,18.49,0.75c0.3,0.07,0.59,0.24,0.81,0.49
						c0.59,0.66,0.54,1.68-0.12,2.27c-3.66,3.3-5.83,7.42-6.52,12.42c-0.09,0.68-0.59,1.19-1.22,1.34
						c-0.09,0.06-0.18,0.12-0.28,0.16c-3.63,1.63-7.5,2.45-11.5,2.45s-7.87-0.82-11.5-2.45c-0.04-0.02-0.08-0.06-0.13-0.13
						c-0.71-0.09-1.29-0.64-1.39-1.37c-0.69-5-2.86-9.11-6.52-12.42c-0.66-0.59-0.71-1.61-0.12-2.27c0.49-0.55,1.27-0.68,1.9-0.37
						C225.18-554.8,237.91-554.64,241.72-554.63z"/>
				</defs>
				<clipPath id="SVGID_4_">
					<use xlink:href="#SVGID_3_"  style="overflow:visible;"/>
				</clipPath>
			</g>
		</g>
		<g>
			<g>
				<defs>
					<ellipse id="SVGID_5_" cx="242.24" cy="-568.56" rx="26.65" ry="26.76"/>
				</defs>
				<clipPath id="SVGID_6_">
					<use xlink:href="#SVGID_5_"  style="overflow:visible;"/>
				</clipPath>
			</g>
		</g>
		<g>
			<g>
				<defs>
					<path id="SVGID_7_" d="M239.36-543.26c-15.58,0-28.25-12.73-28.25-28.37S223.78-600,239.36-600s28.25,12.73,28.25,28.37
						S254.93-543.26,239.36-543.26z M239.36-596.79c-13.81,0-25.05,11.29-25.05,25.16s11.24,25.16,25.05,25.16
						s25.05-11.29,25.05-25.16S253.17-596.79,239.36-596.79z"/>
				</defs>
				<clipPath id="SVGID_8_">
					<use xlink:href="#SVGID_7_"  style="overflow:visible;"/>
				</clipPath>
			</g>
		</g>
		<g>
			<g>
				<defs>
					<path id="SVGID_9_" d="M239.36-534.78c-4,0-7.87-0.82-11.5-2.45c-0.81-0.36-1.17-1.31-0.81-2.12s1.3-1.17,2.11-0.81
						c3.21,1.44,6.64,2.17,10.19,2.17s6.98-0.73,10.19-2.17c0.81-0.36,1.75,0,2.11,0.81s0,1.76-0.81,2.12
						C247.23-535.6,243.36-534.78,239.36-534.78"/>
				</defs>
				<clipPath id="SVGID_10_">
					<use xlink:href="#SVGID_9_"  style="overflow:visible;"/>
				</clipPath>
			</g>
		</g>
		<g>
			<g>
				<defs>
					<path id="SVGID_11_" d="M239.36-527.39c-3.43,0-6.74-0.82-9.85-2.45c-0.69-0.36-1-1.31-0.69-2.12s1.12-1.18,1.81-0.81
						c2.75,1.44,5.69,2.17,8.73,2.17s5.98-0.73,8.73-2.17c0.69-0.36,1.5,0,1.81,0.81s0,1.76-0.69,2.12
						C246.1-528.21,242.78-527.39,239.36-527.39"/>
				</defs>
				<clipPath id="SVGID_12_">
					<use xlink:href="#SVGID_11_"  style="overflow:visible;"/>
				</clipPath>
			</g>
		</g>
		<g>
			<g>
				<defs>
					<path id="SVGID_13_" d="M239.36-520c-2.38,0-4.75-0.3-7.06-0.9c-0.86-0.22-1.37-1.1-1.15-1.96c0.22-0.86,1.09-1.37,1.95-1.15
						c4.1,1.06,8.43,1.06,12.53,0c0.85-0.22,1.73,0.3,1.95,1.15c0.22,0.86-0.29,1.73-1.15,1.96C244.11-520.3,241.73-520,239.36-520"
						/>
				</defs>
				<clipPath id="SVGID_14_">
					<use xlink:href="#SVGID_13_"  style="overflow:visible;"/>
				</clipPath>
			</g>
		</g>
		<g>
			<g>
				<defs>
					<path id="SVGID_15_" d="M229.39-539.11c-0.84-5.79-3.5-10.65-7.95-14.49c-0.69-0.6-1.76-0.54-2.38,0.12
						c-0.62,0.67-0.56,1.69,0.13,2.29c3.85,3.33,6.13,7.49,6.86,12.53c0.13,0.89,0.98,1.5,1.9,1.38S229.52-538.22,229.39-539.11z"/>
				</defs>
				<clipPath id="SVGID_16_">
					<use xlink:href="#SVGID_15_"  style="overflow:visible;"/>
				</clipPath>
			</g>
		</g>
		<g>
			<g>
				<defs>
					<path id="SVGID_17_" d="M248.57-539.11c0.84-5.79,3.5-10.65,7.95-14.49c0.69-0.6,1.76-0.54,2.38,0.12
						c0.62,0.67,0.56,1.69-0.13,2.29c-3.85,3.33-6.13,7.49-6.86,12.53c-0.13,0.89-0.98,1.5-1.9,1.38S248.44-538.22,248.57-539.11z"
						/>
				</defs>
				<clipPath id="SVGID_18_">
					<use xlink:href="#SVGID_17_"  style="overflow:visible;"/>
				</clipPath>
			</g>
		</g>
	</g>
</g>
<g id="Yen" class="st3">
	<g class="st4">
		<g>
			<g>
				<defs>
					<path id="SVGID_19_" d="M241.72-554.63h0.68c4.01-0.01,18.46-0.15,18.49,0.75c0.3,0.07,0.59,0.24,0.81,0.49
						c0.59,0.66,0.54,1.68-0.12,2.27c-3.66,3.3-5.83,7.42-6.52,12.42c-0.09,0.68-0.59,1.19-1.22,1.34
						c-0.09,0.06-0.18,0.12-0.28,0.16c-3.63,1.63-7.5,2.45-11.5,2.45s-7.87-0.82-11.5-2.45c-0.04-0.02-0.08-0.06-0.13-0.13
						c-0.71-0.09-1.29-0.64-1.39-1.37c-0.69-5-2.86-9.11-6.52-12.42c-0.66-0.59-0.71-1.61-0.12-2.27c0.49-0.55,1.27-0.68,1.9-0.37
						C225.18-554.8,237.91-554.64,241.72-554.63z"/>
				</defs>
				<clipPath id="SVGID_20_">
					<use xlink:href="#SVGID_19_"  style="overflow:visible;"/>
				</clipPath>
			</g>
		</g>
		<g>
			<g>
				<defs>
					<ellipse id="SVGID_21_" cx="242.24" cy="-568.56" rx="26.65" ry="26.76"/>
				</defs>
				<clipPath id="SVGID_22_">
					<use xlink:href="#SVGID_21_"  style="overflow:visible;"/>
				</clipPath>
			</g>
		</g>
		<g>
			<g>
				<defs>
					<path id="SVGID_23_" d="M239.36-543.26c-15.58,0-28.25-12.73-28.25-28.37S223.78-600,239.36-600s28.25,12.73,28.25,28.37
						S254.93-543.26,239.36-543.26z M239.36-596.79c-13.81,0-25.05,11.29-25.05,25.16s11.24,25.16,25.05,25.16
						s25.05-11.29,25.05-25.16S253.17-596.79,239.36-596.79z"/>
				</defs>
				<clipPath id="SVGID_24_">
					<use xlink:href="#SVGID_23_"  style="overflow:visible;"/>
				</clipPath>
			</g>
		</g>
		<g>
			<g>
				<defs>
					<path id="SVGID_25_" d="M239.36-534.78c-4,0-7.87-0.82-11.5-2.45c-0.81-0.36-1.17-1.31-0.81-2.12s1.3-1.17,2.11-0.81
						c3.21,1.44,6.64,2.17,10.19,2.17s6.98-0.73,10.19-2.17c0.81-0.36,1.75,0,2.11,0.81s0,1.76-0.81,2.12
						C247.23-535.6,243.36-534.78,239.36-534.78"/>
				</defs>
				<clipPath id="SVGID_26_">
					<use xlink:href="#SVGID_25_"  style="overflow:visible;"/>
				</clipPath>
			</g>
		</g>
		<g>
			<g>
				<defs>
					<path id="SVGID_27_" d="M239.36-527.39c-3.43,0-6.74-0.82-9.85-2.45c-0.69-0.36-1-1.31-0.69-2.12s1.12-1.18,1.81-0.81
						c2.75,1.44,5.69,2.17,8.73,2.17s5.98-0.73,8.73-2.17c0.69-0.36,1.5,0,1.81,0.81s0,1.76-0.69,2.12
						C246.1-528.21,242.78-527.39,239.36-527.39"/>
				</defs>
				<clipPath id="SVGID_28_">
					<use xlink:href="#SVGID_27_"  style="overflow:visible;"/>
				</clipPath>
			</g>
		</g>
		<g>
			<g>
				<defs>
					<path id="SVGID_29_" d="M239.36-520c-2.38,0-4.75-0.3-7.06-0.9c-0.86-0.22-1.37-1.1-1.15-1.96c0.22-0.86,1.09-1.37,1.95-1.15
						c4.1,1.06,8.43,1.06,12.53,0c0.85-0.22,1.73,0.3,1.95,1.15c0.22,0.86-0.29,1.73-1.15,1.96C244.11-520.3,241.73-520,239.36-520"
						/>
				</defs>
				<clipPath id="SVGID_30_">
					<use xlink:href="#SVGID_29_"  style="overflow:visible;"/>
				</clipPath>
			</g>
		</g>
		<g>
			<g>
				<defs>
					<path id="SVGID_31_" d="M229.39-539.11c-0.84-5.79-3.5-10.65-7.95-14.49c-0.69-0.6-1.76-0.54-2.38,0.12
						c-0.62,0.67-0.56,1.69,0.13,2.29c3.85,3.33,6.13,7.49,6.86,12.53c0.13,0.89,0.98,1.5,1.9,1.38S229.52-538.22,229.39-539.11z"/>
				</defs>
				<clipPath id="SVGID_32_">
					<use xlink:href="#SVGID_31_"  style="overflow:visible;"/>
				</clipPath>
			</g>
		</g>
		<g>
			<g>
				<defs>
					<path id="SVGID_33_" d="M248.57-539.11c0.84-5.79,3.5-10.65,7.95-14.49c0.69-0.6,1.76-0.54,2.38,0.12
						c0.62,0.67,0.56,1.69-0.13,2.29c-3.85,3.33-6.13,7.49-6.86,12.53c-0.13,0.89-0.98,1.5-1.9,1.38S248.44-538.22,248.57-539.11z"
						/>
				</defs>
				<clipPath id="SVGID_34_">
					<use xlink:href="#SVGID_33_"  style="overflow:visible;"/>
				</clipPath>
			</g>
		</g>
	</g>
</g>
<g id="Euro" class="st3">
	<g class="st4">
		<g>
			<g>
				<defs>
					<path id="SVGID_35_" d="M241.72-554.63h0.68c4.01-0.01,18.46-0.15,18.49,0.75c0.3,0.07,0.59,0.24,0.81,0.49
						c0.59,0.66,0.54,1.68-0.12,2.27c-3.66,3.3-5.83,7.42-6.52,12.42c-0.09,0.68-0.59,1.19-1.22,1.34
						c-0.09,0.06-0.18,0.12-0.28,0.16c-3.63,1.63-7.5,2.45-11.5,2.45s-7.87-0.82-11.5-2.45c-0.04-0.02-0.08-0.06-0.13-0.13
						c-0.71-0.09-1.29-0.64-1.39-1.37c-0.69-5-2.86-9.11-6.52-12.42c-0.66-0.59-0.71-1.61-0.12-2.27c0.49-0.55,1.27-0.68,1.9-0.37
						C225.18-554.8,237.91-554.64,241.72-554.63z"/>
				</defs>
				<clipPath id="SVGID_36_">
					<use xlink:href="#SVGID_35_"  style="overflow:visible;"/>
				</clipPath>
			</g>
		</g>
		<g>
			<g>
				<defs>
					<ellipse id="SVGID_37_" cx="242.24" cy="-568.56" rx="26.65" ry="26.76"/>
				</defs>
				<clipPath id="SVGID_38_">
					<use xlink:href="#SVGID_37_"  style="overflow:visible;"/>
				</clipPath>
			</g>
		</g>
		<g>
			<g>
				<defs>
					<path id="SVGID_39_" d="M239.36-543.26c-15.58,0-28.25-12.73-28.25-28.37S223.78-600,239.36-600s28.25,12.73,28.25,28.37
						S254.93-543.26,239.36-543.26z M239.36-596.79c-13.81,0-25.05,11.29-25.05,25.16s11.24,25.16,25.05,25.16
						s25.05-11.29,25.05-25.16S253.17-596.79,239.36-596.79z"/>
				</defs>
				<clipPath id="SVGID_40_">
					<use xlink:href="#SVGID_39_"  style="overflow:visible;"/>
				</clipPath>
			</g>
		</g>
		<g>
			<g>
				<defs>
					<path id="SVGID_41_" d="M239.36-534.78c-4,0-7.87-0.82-11.5-2.45c-0.81-0.36-1.17-1.31-0.81-2.12s1.3-1.17,2.11-0.81
						c3.21,1.44,6.64,2.17,10.19,2.17s6.98-0.73,10.19-2.17c0.81-0.36,1.75,0,2.11,0.81s0,1.76-0.81,2.12
						C247.23-535.6,243.36-534.78,239.36-534.78"/>
				</defs>
				<clipPath id="SVGID_42_">
					<use xlink:href="#SVGID_41_"  style="overflow:visible;"/>
				</clipPath>
			</g>
		</g>
		<g>
			<g>
				<defs>
					<path id="SVGID_43_" d="M239.36-527.39c-3.43,0-6.74-0.82-9.85-2.45c-0.69-0.36-1-1.31-0.69-2.12s1.12-1.18,1.81-0.81
						c2.75,1.44,5.69,2.17,8.73,2.17s5.98-0.73,8.73-2.17c0.69-0.36,1.5,0,1.81,0.81s0,1.76-0.69,2.12
						C246.1-528.21,242.78-527.39,239.36-527.39"/>
				</defs>
				<clipPath id="SVGID_44_">
					<use xlink:href="#SVGID_43_"  style="overflow:visible;"/>
				</clipPath>
			</g>
		</g>
		<g>
			<g>
				<defs>
					<path id="SVGID_45_" d="M239.36-520c-2.38,0-4.75-0.3-7.06-0.9c-0.86-0.22-1.37-1.1-1.15-1.96c0.22-0.86,1.09-1.37,1.95-1.15
						c4.1,1.06,8.43,1.06,12.53,0c0.85-0.22,1.73,0.3,1.95,1.15c0.22,0.86-0.29,1.73-1.15,1.96C244.11-520.3,241.73-520,239.36-520"
						/>
				</defs>
				<clipPath id="SVGID_46_">
					<use xlink:href="#SVGID_45_"  style="overflow:visible;"/>
				</clipPath>
			</g>
		</g>
		<g>
			<g>
				<defs>
					<path id="SVGID_47_" d="M229.39-539.11c-0.84-5.79-3.5-10.65-7.95-14.49c-0.69-0.6-1.76-0.54-2.38,0.12
						c-0.62,0.67-0.56,1.69,0.13,2.29c3.85,3.33,6.13,7.49,6.86,12.53c0.13,0.89,0.98,1.5,1.9,1.38S229.52-538.22,229.39-539.11z"/>
				</defs>
				<clipPath id="SVGID_48_">
					<use xlink:href="#SVGID_47_"  style="overflow:visible;"/>
				</clipPath>
			</g>
		</g>
		<g>
			<g>
				<defs>
					<path id="SVGID_49_" d="M248.57-539.11c0.84-5.79,3.5-10.65,7.95-14.49c0.69-0.6,1.76-0.54,2.38,0.12
						c0.62,0.67,0.56,1.69-0.13,2.29c-3.85,3.33-6.13,7.49-6.86,12.53c-0.13,0.89-0.98,1.5-1.9,1.38S248.44-538.22,248.57-539.11z"
						/>
				</defs>
				<clipPath id="SVGID_50_">
					<use xlink:href="#SVGID_49_"  style="overflow:visible;"/>
				</clipPath>
			</g>
		</g>
	</g>
</g>
<g id="Rupee" class="st3">
	<g class="st4">
		<g>
			<g>
				<defs>
					<path id="SVGID_51_" d="M241.72-554.63h0.68c4.01-0.01,18.46-0.15,18.49,0.75c0.3,0.07,0.59,0.24,0.81,0.49
						c0.59,0.66,0.54,1.68-0.12,2.27c-3.66,3.3-5.83,7.42-6.52,12.42c-0.09,0.68-0.59,1.19-1.22,1.34
						c-0.09,0.06-0.18,0.12-0.28,0.16c-3.63,1.63-7.5,2.45-11.5,2.45s-7.87-0.82-11.5-2.45c-0.04-0.02-0.08-0.06-0.13-0.13
						c-0.71-0.09-1.29-0.64-1.39-1.37c-0.69-5-2.86-9.11-6.52-12.42c-0.66-0.59-0.71-1.61-0.12-2.27c0.49-0.55,1.27-0.68,1.9-0.37
						C225.18-554.8,237.91-554.64,241.72-554.63z"/>
				</defs>
				<clipPath id="SVGID_52_">
					<use xlink:href="#SVGID_51_"  style="overflow:visible;"/>
				</clipPath>
			</g>
		</g>
		<g>
			<g>
				<defs>
					<ellipse id="SVGID_53_" cx="242.24" cy="-568.56" rx="26.65" ry="26.76"/>
				</defs>
				<clipPath id="SVGID_54_">
					<use xlink:href="#SVGID_53_"  style="overflow:visible;"/>
				</clipPath>
			</g>
		</g>
		<g>
			<g>
				<defs>
					<path id="SVGID_55_" d="M239.36-543.26c-15.58,0-28.25-12.73-28.25-28.37S223.78-600,239.36-600s28.25,12.73,28.25,28.37
						S254.93-543.26,239.36-543.26z M239.36-596.79c-13.81,0-25.05,11.29-25.05,25.16s11.24,25.16,25.05,25.16
						s25.05-11.29,25.05-25.16S253.17-596.79,239.36-596.79z"/>
				</defs>
				<clipPath id="SVGID_56_">
					<use xlink:href="#SVGID_55_"  style="overflow:visible;"/>
				</clipPath>
			</g>
		</g>
		<g>
			<g>
				<defs>
					<path id="SVGID_57_" d="M239.36-534.78c-4,0-7.87-0.82-11.5-2.45c-0.81-0.36-1.17-1.31-0.81-2.12s1.3-1.17,2.11-0.81
						c3.21,1.44,6.64,2.17,10.19,2.17s6.98-0.73,10.19-2.17c0.81-0.36,1.75,0,2.11,0.81s0,1.76-0.81,2.12
						C247.23-535.6,243.36-534.78,239.36-534.78"/>
				</defs>
				<clipPath id="SVGID_58_">
					<use xlink:href="#SVGID_57_"  style="overflow:visible;"/>
				</clipPath>
			</g>
		</g>
		<g>
			<g>
				<defs>
					<path id="SVGID_59_" d="M239.36-527.39c-3.43,0-6.74-0.82-9.85-2.45c-0.69-0.36-1-1.31-0.69-2.12s1.12-1.18,1.81-0.81
						c2.75,1.44,5.69,2.17,8.73,2.17s5.98-0.73,8.73-2.17c0.69-0.36,1.5,0,1.81,0.81s0,1.76-0.69,2.12
						C246.1-528.21,242.78-527.39,239.36-527.39"/>
				</defs>
				<clipPath id="SVGID_60_">
					<use xlink:href="#SVGID_59_"  style="overflow:visible;"/>
				</clipPath>
			</g>
		</g>
		<g>
			<g>
				<defs>
					<path id="SVGID_61_" d="M239.36-520c-2.38,0-4.75-0.3-7.06-0.9c-0.86-0.22-1.37-1.1-1.15-1.96c0.22-0.86,1.09-1.37,1.95-1.15
						c4.1,1.06,8.43,1.06,12.53,0c0.85-0.22,1.73,0.3,1.95,1.15c0.22,0.86-0.29,1.73-1.15,1.96C244.11-520.3,241.73-520,239.36-520"
						/>
				</defs>
				<clipPath id="SVGID_62_">
					<use xlink:href="#SVGID_61_"  style="overflow:visible;"/>
				</clipPath>
			</g>
		</g>
		<g>
			<g>
				<defs>
					<path id="SVGID_63_" d="M229.39-539.11c-0.84-5.79-3.5-10.65-7.95-14.49c-0.69-0.6-1.76-0.54-2.38,0.12
						c-0.62,0.67-0.56,1.69,0.13,2.29c3.85,3.33,6.13,7.49,6.86,12.53c0.13,0.89,0.98,1.5,1.9,1.38S229.52-538.22,229.39-539.11z"/>
				</defs>
				<clipPath id="SVGID_64_">
					<use xlink:href="#SVGID_63_"  style="overflow:visible;"/>
				</clipPath>
			</g>
		</g>
		<g>
			<g>
				<defs>
					<path id="SVGID_65_" d="M248.57-539.11c0.84-5.79,3.5-10.65,7.95-14.49c0.69-0.6,1.76-0.54,2.38,0.12
						c0.62,0.67,0.56,1.69-0.13,2.29c-3.85,3.33-6.13,7.49-6.86,12.53c-0.13,0.89-0.98,1.5-1.9,1.38S248.44-538.22,248.57-539.11z"
						/>
				</defs>
				<clipPath id="SVGID_66_">
					<use xlink:href="#SVGID_65_"  style="overflow:visible;"/>
				</clipPath>
			</g>
		</g>
	</g>
</g>
</svg>
