<?xml version="1.0" encoding="utf-8"?>
<!-- Generator: Adobe Illustrator 24.0.3, SVG Export Plug-In . SVG Version: 6.00 Build 0)  -->
<svg version="1.1" id="USD" xmlns="http://www.w3.org/2000/svg" xmlns:xlink="http://www.w3.org/1999/xlink" x="0px" y="0px"
	 viewBox="0 0 80 80" style="enable-background:new 0 0 10 10;" xml:space="preserve">
<style type="text/css">
	.st0{fill:#B2E5F6;}
	.st1{fill:#232F3E;}
	.st2{clip-path:url(#SVGID_2_);}
</style>
<title>USD</title>
<path class="st0" d="M65.43,6.66c-8.05,0-14.57,6.52-14.57,14.57v0.69H6.41c-0.97,0-1.76,0.79-1.76,1.76l0,0v35.81
	c0,0.97,0.79,1.76,1.76,1.76h66.1c0.97,0,1.76-0.79,1.76-1.76l0,0v-26.7c6.39-4.88,7.61-14.02,2.73-20.41
	C74.25,8.78,69.97,6.66,65.43,6.66z"/>
<path class="st1" d="M70.93,36.84c-0.73,0-1.32,0.59-1.32,1.32V56.8h-67V20.11h40.74c0.73,0,1.32-0.59,1.32-1.32
	c0-0.73-0.59-1.32-1.32-1.32H2.63v-0.78c0-1.94,1.57-3.51,3.51-3.51c0,0,0,0,0,0h38.55c0.73,0,1.32-0.59,1.32-1.32
	c0-0.73-0.59-1.32-1.32-1.32l0,0H6.14C2.75,10.55,0,13.31,0,16.7v43.55c-0.01,3.39,2.74,6.14,6.13,6.15c0,0,0.01,0,0.01,0h19.53V74
	h-4.22c-0.73,0-1.32,0.59-1.32,1.32c0,0.73,0.59,1.32,1.32,1.32c0,0,0,0,0,0h29.34c0.73,0,1.32-0.59,1.32-1.32
	c0-0.73-0.59-1.32-1.32-1.32c0,0,0,0,0,0h-4.24v-7.6h19.57c3.4,0,6.15-2.75,6.15-6.15c0,0,0,0,0,0V38.16c0-0.71-0.56-1.29-1.27-1.32
	H70.93z M43.91,74h-15.6v-7.59h15.6V74z M66.13,63.77h-60c-1.94,0-3.51-1.57-3.51-3.51v-0.82h67v0.82
	C69.63,62.19,68.06,63.76,66.13,63.77C66.13,63.77,66.13,63.77,66.13,63.77z"/>
<path class="st1" d="M62.77,3.35c-8.78-0.01-15.89,7.1-15.9,15.88s7.1,15.89,15.88,15.9s15.89-7.1,15.9-15.88l0,0
	C78.64,10.48,71.54,3.37,62.77,3.35z M62.77,32.5c-7.32,0.02-13.27-5.91-13.29-13.23S55.39,6,62.71,5.98S75.98,11.89,76,19.21
	c0,0.01,0,0.01,0,0.02l0,0C75.99,26.54,70.08,32.47,62.77,32.5z"/>
<path class="st1" d="M51.68,39.05c-4.69,2.25-9.8,3.48-15,3.6c-7.02,0.12-13.93-1.75-19.94-5.37c-0.51-0.3-0.88,0.26-0.44,0.65
	c5.34,5.17,12.5,8.01,19.93,7.91c5.84-0.1,11.5-2.09,16.13-5.65C53.05,39.56,52.42,38.7,51.68,39.05z"/>
<path class="st1" d="M56,36.28c-0.48-0.63-4.61-1.11-7.09,0.88c-0.37,0.3-0.3,0.71,0.12,0.64c1.42-0.2,4.56-0.66,5.13,0.1
	s-0.56,4-1.07,5.44c-0.15,0.44,0.19,0.61,0.55,0.27C55.92,41.4,56.46,36.92,56,36.28z"/>
<g>
	<defs>
		<path id="SVGID_1_" d="M62.24,14.47c-0.31,0.05-0.6,0.21-0.81,0.45c-0.19,0.24-0.29,0.54-0.28,0.84
			c-0.01,0.29,0.09,0.56,0.28,0.78c0.22,0.23,0.5,0.39,0.81,0.47V14.47z M63.56,22.72c0.62-0.04,1.1-0.56,1.1-1.18
			c-0.01-0.64-0.47-1.17-1.1-1.28L63.56,22.72z M62.65,27.62c-0.15,0.01-0.31-0.03-0.43-0.12c-0.1-0.13-0.14-0.29-0.13-0.45V25.3
			c-1.11-0.07-2.18-0.39-3.15-0.93c-0.12-0.06-0.24-0.13-0.34-0.22c-0.06-0.06-0.1-0.13-0.13-0.21c-0.01-0.12-0.01-0.23,0-0.35
			v-1.41c0-0.34,0.13-0.51,0.39-0.51c0.15,0.02,0.28,0.07,0.41,0.15c0.5,0.25,1.01,0.46,1.54,0.64c0.43,0.14,0.87,0.23,1.32,0.27
			v-2.88l-0.74-0.27c-0.9-0.29-1.72-0.79-2.39-1.45c-0.53-0.58-0.81-1.35-0.79-2.13c-0.03-1.04,0.37-2.05,1.11-2.79
			c0.79-0.77,1.82-1.24,2.92-1.31v-1.71c-0.02-0.16,0.03-0.32,0.13-0.45c0.12-0.09,0.28-0.13,0.43-0.12h0.35
			c0.16-0.02,0.31,0.03,0.44,0.12c0.09,0.13,0.14,0.29,0.12,0.45v1.75c0.82,0.07,1.62,0.3,2.36,0.68c0.16,0.07,0.3,0.17,0.41,0.31
			c0.07,0.15,0.1,0.31,0.09,0.47v1.37c0,0.34-0.13,0.51-0.39,0.51c-0.21-0.05-0.41-0.12-0.6-0.22c-0.59-0.29-1.22-0.48-1.87-0.57v3
			l0.44,0.15c0.99,0.3,1.9,0.82,2.67,1.52c0.54,0.58,0.83,1.34,0.81,2.13c0.01,1.02-0.39,2-1.12,2.71c-0.81,0.77-1.88,1.22-3,1.25
			v1.77c0.02,0.16-0.03,0.32-0.12,0.45c-0.13,0.09-0.28,0.14-0.44,0.12L62.65,27.62z"/>
	</defs>
	<clipPath id="SVGID_2_">
		<use xlink:href="#SVGID_1_"  style="overflow:visible;"/>
	</clipPath>
	<g class="st2">
		<rect x="54.79" y="6.2" class="st1" width="16.26" height="24.85"/>
	</g>
</g>
</svg>
